<svg width="916" height="812" viewBox="0 0 916 812" fill="none" xmlns="http://www.w3.org/2000/svg">
<path d="M0 302C0 268.863 26.8629 242 60 242H856C889.137 242 916 268.863 916 302V452H0V302Z" fill="#FF5B5B"/>
<path d="M0 452H916V752C916 785.137 889.137 812 856 812H60C26.8629 812 0 785.137 0 752V452Z" fill="white"/>
<path d="M400.121 107.724C429.225 59.0243 499.775 59.0242 528.879 107.724L613.623 249.525C643.5 299.517 607.483 363 549.244 363H379.756C321.517 363 285.5 299.517 315.377 249.525L400.121 107.724Z" fill="#FF5B5B"/>
</svg>
